The.Last.Samurai.2003.720p.Bluray.x264.anoXmous

Format                           : MPEG-4
Format profile                   : Base Media
Codec ID                         : isom
File size                        : 900 MiB
Duration                         : 2h 34mn
Overall bit rate mode            : Variable
Overall bit rate                 : 816 Kbps


Video
ID                               : 1
Format                           : AVC
Format/Info                      : Advanced Video Codec
Format profile                   : High@L4.1
Format settings, CABAC           : Yes
Format settings, ReFrames        : 4 frames
Codec ID                         : avc1
Codec ID/Info                    : Advanced Video Coding
Duration                         : 2h 34mn
Bit rate                         : 743 Kbps
Maximum bit rate                 : 5 749 Kbps
Width                            : 1 280 pixels
Height                           : 528 pixels
Display aspect ratio             : 2.40:1
Frame rate mode                  : Constant
Frame rate                       : 23.976 fps
Color space                      : YUV
Chroma subsampling               : 4:2:0
Bit depth                        : 8 bits
Scan type                        : Progressive
Bits/(Pixel*Frame)               : 0.046
Stream size                      : 819 MiB (91%)
Writing library                  : x264 core 120 r2120 0c7dab9


Audio
ID                               : 2
Format                           : AAC
Format/Info                      : Advanced Audio Codec
Format profile                   : LC
Codec ID                         : 40
Duration                         : 2h 34mn
Bit rate mode                    : Variable
Bit rate                         : 70.0 Kbps
Maximum bit rate                 : 96.3 Kbps
Channel(s)                       : 2 channels
Channel positions                : Front: L R
Sampling rate                    : 48.0 KHz 
Compression mode                 : Lossy
Stream size                      : 77.2 MiB (9%)

The.Last.Samurai.2003.720p.Bluray.x264.anoXmous_se.srt
 
http://www.imdb.com/title/tt0325710/

This work very fine with PSP and XBOX
